<?xml version="1.0" encoding="UTF-8"?>
<svg xmlns="http://www.w3.org/2000/svg" width="960" height="966" viewBox="0 0 960 966">
  <rect width="960" height="966" fill="#ffffff"/>
  <text x="480" y="32" text-anchor="middle" font-family="Times New Roman, Times, serif" font-size="15" font-weight="bold">Table 1: Role Based Permission</text>
  <rect x="50" y="58" width="860" height="40" fill="#000" stroke="#000"/>
  <line x1="390" y1="58" x2="390" y2="98" stroke="#fff"/>
  <line x1="650" y1="58" x2="650" y2="98" stroke="#fff"/>
  <text x="220" y="84" text-anchor="middle" font-family="Times New Roman, Times, serif" font-size="12" font-weight="bold" fill="#fff">Module</text>
  <text x="520" y="84" text-anchor="middle" font-family="Times New Roman, Times, serif" font-size="12" font-weight="bold" fill="#fff">Super Admin</text>
  <text x="780" y="84" text-anchor="middle" font-family="Times New Roman, Times, serif" font-size="12" font-weight="bold" fill="#fff">Admin</text>
  
    <rect x="50" y="98" width="860" height="32" fill="#ffffff" stroke="#000" stroke-width="0.85"/>
    <line x1="390" y1="98" x2="390" y2="130" stroke="#000" stroke-width="0.85"/>
    <line x1="650" y1="98" x2="650" y2="130" stroke="#000" stroke-width="0.85"/>
    <text x="62" y="118" font-family="Times New Roman, Times, serif" font-size="11">Dashboard</text>
    <text x="520" y="119" text-anchor="middle" font-family="Times New Roman, Times, serif" font-size="14" font-weight="bold">✓</text>
    <text x="780" y="119" text-anchor="middle" font-family="Times New Roman, Times, serif" font-size="14" font-weight="bold">✓</text>
    <rect x="50" y="130" width="860" height="32" fill="#f4f4f4" stroke="#000" stroke-width="0.85"/>
    <line x1="390" y1="130" x2="390" y2="162" stroke="#000" stroke-width="0.85"/>
    <line x1="650" y1="130" x2="650" y2="162" stroke="#000" stroke-width="0.85"/>
    <text x="62" y="150" font-family="Times New Roman, Times, serif" font-size="11">Add / Edit</text>
    <text x="520" y="151" text-anchor="middle" font-family="Times New Roman, Times, serif" font-size="14" font-weight="bold">✓</text>
    <text x="780" y="151" text-anchor="middle" font-family="Times New Roman, Times, serif" font-size="14" font-weight="bold">✓</text>
    <rect x="50" y="162" width="860" height="32" fill="#ffffff" stroke="#000" stroke-width="0.85"/>
    <line x1="390" y1="162" x2="390" y2="194" stroke="#000" stroke-width="0.85"/>
    <line x1="650" y1="162" x2="650" y2="194" stroke="#000" stroke-width="0.85"/>
    <text x="62" y="182" font-family="Times New Roman, Times, serif" font-size="11">Delete</text>
    <text x="520" y="183" text-anchor="middle" font-family="Times New Roman, Times, serif" font-size="14" font-weight="bold">✓</text>
    <text x="780" y="183" text-anchor="middle" font-family="Times New Roman, Times, serif" font-size="14" font-weight="bold">✓</text>
    <rect x="50" y="194" width="860" height="32" fill="#f4f4f4" stroke="#000" stroke-width="0.85"/>
    <line x1="390" y1="194" x2="390" y2="226" stroke="#000" stroke-width="0.85"/>
    <line x1="650" y1="194" x2="650" y2="226" stroke="#000" stroke-width="0.85"/>
    <text x="62" y="214" font-family="Times New Roman, Times, serif" font-size="11">Resource Allocation</text>
    <text x="520" y="215" text-anchor="middle" font-family="Times New Roman, Times, serif" font-size="14" font-weight="bold">✓</text>
    <text x="780" y="215" text-anchor="middle" font-family="Times New Roman, Times, serif" font-size="14" font-weight="bold">✗</text>
    <rect x="50" y="226" width="860" height="32" fill="#ffffff" stroke="#000" stroke-width="0.85"/>
    <line x1="390" y1="226" x2="390" y2="258" stroke="#000" stroke-width="0.85"/>
    <line x1="650" y1="226" x2="650" y2="258" stroke="#000" stroke-width="0.85"/>
    <text x="62" y="246" font-family="Times New Roman, Times, serif" font-size="11">Student Quota</text>
    <text x="520" y="247" text-anchor="middle" font-family="Times New Roman, Times, serif" font-size="14" font-weight="bold">✓</text>
    <text x="780" y="247" text-anchor="middle" font-family="Times New Roman, Times, serif" font-size="14" font-weight="bold">✗</text>
    <rect x="50" y="258" width="860" height="32" fill="#f4f4f4" stroke="#000" stroke-width="0.85"/>
    <line x1="390" y1="258" x2="390" y2="290" stroke="#000" stroke-width="0.85"/>
    <line x1="650" y1="258" x2="650" y2="290" stroke="#000" stroke-width="0.85"/>
    <text x="62" y="278" font-family="Times New Roman, Times, serif" font-size="11">Allocation Plans</text>
    <text x="520" y="279" text-anchor="middle" font-family="Times New Roman, Times, serif" font-size="14" font-weight="bold">✓</text>
    <text x="780" y="279" text-anchor="middle" font-family="Times New Roman, Times, serif" font-size="14" font-weight="bold">✗</text>
    <rect x="50" y="290" width="860" height="32" fill="#ffffff" stroke="#000" stroke-width="0.85"/>
    <line x1="390" y1="290" x2="390" y2="322" stroke="#000" stroke-width="0.85"/>
    <line x1="650" y1="290" x2="650" y2="322" stroke="#000" stroke-width="0.85"/>
    <text x="62" y="310" font-family="Times New Roman, Times, serif" font-size="11">Resource Distribution</text>
    <text x="520" y="311" text-anchor="middle" font-family="Times New Roman, Times, serif" font-size="14" font-weight="bold">✓</text>
    <text x="780" y="311" text-anchor="middle" font-family="Times New Roman, Times, serif" font-size="14" font-weight="bold">✓</text>
    <rect x="50" y="322" width="860" height="32" fill="#f4f4f4" stroke="#000" stroke-width="0.85"/>
    <line x1="390" y1="322" x2="390" y2="354" stroke="#000" stroke-width="0.85"/>
    <line x1="650" y1="322" x2="650" y2="354" stroke="#000" stroke-width="0.85"/>
    <text x="62" y="342" font-family="Times New Roman, Times, serif" font-size="11">Textbooks</text>
    <text x="520" y="343" text-anchor="middle" font-family="Times New Roman, Times, serif" font-size="14" font-weight="bold">✓</text>
    <text x="780" y="343" text-anchor="middle" font-family="Times New Roman, Times, serif" font-size="14" font-weight="bold">✓</text>
    <rect x="50" y="354" width="860" height="32" fill="#ffffff" stroke="#000" stroke-width="0.85"/>
    <line x1="390" y1="354" x2="390" y2="386" stroke="#000" stroke-width="0.85"/>
    <line x1="650" y1="354" x2="650" y2="386" stroke="#000" stroke-width="0.85"/>
    <text x="62" y="374" font-family="Times New Roman, Times, serif" font-size="11">Stocks</text>
    <text x="520" y="375" text-anchor="middle" font-family="Times New Roman, Times, serif" font-size="14" font-weight="bold">✓</text>
    <text x="780" y="375" text-anchor="middle" font-family="Times New Roman, Times, serif" font-size="14" font-weight="bold">✓</text>
    <rect x="50" y="386" width="860" height="32" fill="#f4f4f4" stroke="#000" stroke-width="0.85"/>
    <line x1="390" y1="386" x2="390" y2="418" stroke="#000" stroke-width="0.85"/>
    <line x1="650" y1="386" x2="650" y2="418" stroke="#000" stroke-width="0.85"/>
    <text x="62" y="406" font-family="Times New Roman, Times, serif" font-size="11">School Supplies</text>
    <text x="520" y="407" text-anchor="middle" font-family="Times New Roman, Times, serif" font-size="14" font-weight="bold">✓</text>
    <text x="780" y="407" text-anchor="middle" font-family="Times New Roman, Times, serif" font-size="14" font-weight="bold">✓</text>
    <rect x="50" y="418" width="860" height="32" fill="#ffffff" stroke="#000" stroke-width="0.85"/>
    <line x1="390" y1="418" x2="390" y2="450" stroke="#000" stroke-width="0.85"/>
    <line x1="650" y1="418" x2="650" y2="450" stroke="#000" stroke-width="0.85"/>
    <text x="62" y="438" font-family="Times New Roman, Times, serif" font-size="11">Supply Details</text>
    <text x="520" y="439" text-anchor="middle" font-family="Times New Roman, Times, serif" font-size="14" font-weight="bold">✓</text>
    <text x="780" y="439" text-anchor="middle" font-family="Times New Roman, Times, serif" font-size="14" font-weight="bold">✓</text>
    <rect x="50" y="450" width="860" height="32" fill="#f4f4f4" stroke="#000" stroke-width="0.85"/>
    <line x1="390" y1="450" x2="390" y2="482" stroke="#000" stroke-width="0.85"/>
    <line x1="650" y1="450" x2="650" y2="482" stroke="#000" stroke-width="0.85"/>
    <text x="62" y="470" font-family="Times New Roman, Times, serif" font-size="11">Teacher Guide Receipt</text>
    <text x="520" y="471" text-anchor="middle" font-family="Times New Roman, Times, serif" font-size="14" font-weight="bold">✓</text>
    <text x="780" y="471" text-anchor="middle" font-family="Times New Roman, Times, serif" font-size="14" font-weight="bold">✓</text>
    <rect x="50" y="482" width="860" height="32" fill="#ffffff" stroke="#000" stroke-width="0.85"/>
    <line x1="390" y1="482" x2="390" y2="514" stroke="#000" stroke-width="0.85"/>
    <line x1="650" y1="482" x2="650" y2="514" stroke="#000" stroke-width="0.85"/>
    <text x="62" y="502" font-family="Times New Roman, Times, serif" font-size="11">Teacher Guide Distribution</text>
    <text x="520" y="503" text-anchor="middle" font-family="Times New Roman, Times, serif" font-size="14" font-weight="bold">✓</text>
    <text x="780" y="503" text-anchor="middle" font-family="Times New Roman, Times, serif" font-size="14" font-weight="bold">✓</text>
    <rect x="50" y="514" width="860" height="32" fill="#f4f4f4" stroke="#000" stroke-width="0.85"/>
    <line x1="390" y1="514" x2="390" y2="546" stroke="#000" stroke-width="0.85"/>
    <line x1="650" y1="514" x2="650" y2="546" stroke="#000" stroke-width="0.85"/>
    <text x="62" y="534" font-family="Times New Roman, Times, serif" font-size="11">Teacher Guide Issues</text>
    <text x="520" y="535" text-anchor="middle" font-family="Times New Roman, Times, serif" font-size="14" font-weight="bold">✓</text>
    <text x="780" y="535" text-anchor="middle" font-family="Times New Roman, Times, serif" font-size="14" font-weight="bold">✓</text>
    <rect x="50" y="546" width="860" height="32" fill="#ffffff" stroke="#000" stroke-width="0.85"/>
    <line x1="390" y1="546" x2="390" y2="578" stroke="#000" stroke-width="0.85"/>
    <line x1="650" y1="546" x2="650" y2="578" stroke="#000" stroke-width="0.85"/>
    <text x="62" y="566" font-family="Times New Roman, Times, serif" font-size="11">Teacher Guide Summaries</text>
    <text x="520" y="567" text-anchor="middle" font-family="Times New Roman, Times, serif" font-size="14" font-weight="bold">✓</text>
    <text x="780" y="567" text-anchor="middle" font-family="Times New Roman, Times, serif" font-size="14" font-weight="bold">✓</text>
    <rect x="50" y="578" width="860" height="32" fill="#f4f4f4" stroke="#000" stroke-width="0.85"/>
    <line x1="390" y1="578" x2="390" y2="610" stroke="#000" stroke-width="0.85"/>
    <line x1="650" y1="578" x2="650" y2="610" stroke="#000" stroke-width="0.85"/>
    <text x="62" y="598" font-family="Times New Roman, Times, serif" font-size="11">Academic Years</text>
    <text x="520" y="599" text-anchor="middle" font-family="Times New Roman, Times, serif" font-size="14" font-weight="bold">✓</text>
    <text x="780" y="599" text-anchor="middle" font-family="Times New Roman, Times, serif" font-size="14" font-weight="bold">✓</text>
    <rect x="50" y="610" width="860" height="32" fill="#ffffff" stroke="#000" stroke-width="0.85"/>
    <line x1="390" y1="610" x2="390" y2="642" stroke="#000" stroke-width="0.85"/>
    <line x1="650" y1="610" x2="650" y2="642" stroke="#000" stroke-width="0.85"/>
    <text x="62" y="630" font-family="Times New Roman, Times, serif" font-size="11">Year Rollover</text>
    <text x="520" y="631" text-anchor="middle" font-family="Times New Roman, Times, serif" font-size="14" font-weight="bold">✓</text>
    <text x="780" y="631" text-anchor="middle" font-family="Times New Roman, Times, serif" font-size="14" font-weight="bold">✗</text>
    <rect x="50" y="642" width="860" height="32" fill="#f4f4f4" stroke="#000" stroke-width="0.85"/>
    <line x1="390" y1="642" x2="390" y2="674" stroke="#000" stroke-width="0.85"/>
    <line x1="650" y1="642" x2="650" y2="674" stroke="#000" stroke-width="0.85"/>
    <text x="62" y="662" font-family="Times New Roman, Times, serif" font-size="11">Townships</text>
    <text x="520" y="663" text-anchor="middle" font-family="Times New Roman, Times, serif" font-size="14" font-weight="bold">✓</text>
    <text x="780" y="663" text-anchor="middle" font-family="Times New Roman, Times, serif" font-size="14" font-weight="bold">✓</text>
    <rect x="50" y="674" width="860" height="32" fill="#ffffff" stroke="#000" stroke-width="0.85"/>
    <line x1="390" y1="674" x2="390" y2="706" stroke="#000" stroke-width="0.85"/>
    <line x1="650" y1="674" x2="650" y2="706" stroke="#000" stroke-width="0.85"/>
    <text x="62" y="694" font-family="Times New Roman, Times, serif" font-size="11">Grades</text>
    <text x="520" y="695" text-anchor="middle" font-family="Times New Roman, Times, serif" font-size="14" font-weight="bold">✓</text>
    <text x="780" y="695" text-anchor="middle" font-family="Times New Roman, Times, serif" font-size="14" font-weight="bold">✓</text>
    <rect x="50" y="706" width="860" height="32" fill="#f4f4f4" stroke="#000" stroke-width="0.85"/>
    <line x1="390" y1="706" x2="390" y2="738" stroke="#000" stroke-width="0.85"/>
    <line x1="650" y1="706" x2="650" y2="738" stroke="#000" stroke-width="0.85"/>
    <text x="62" y="726" font-family="Times New Roman, Times, serif" font-size="11">Book Names</text>
    <text x="520" y="727" text-anchor="middle" font-family="Times New Roman, Times, serif" font-size="14" font-weight="bold">✓</text>
    <text x="780" y="727" text-anchor="middle" font-family="Times New Roman, Times, serif" font-size="14" font-weight="bold">✓</text>
    <rect x="50" y="738" width="860" height="32" fill="#ffffff" stroke="#000" stroke-width="0.85"/>
    <line x1="390" y1="738" x2="390" y2="770" stroke="#000" stroke-width="0.85"/>
    <line x1="650" y1="738" x2="650" y2="770" stroke="#000" stroke-width="0.85"/>
    <text x="62" y="758" font-family="Times New Roman, Times, serif" font-size="11">Grade–Subjects</text>
    <text x="520" y="759" text-anchor="middle" font-family="Times New Roman, Times, serif" font-size="14" font-weight="bold">✓</text>
    <text x="780" y="759" text-anchor="middle" font-family="Times New Roman, Times, serif" font-size="14" font-weight="bold">✓</text>
    <rect x="50" y="770" width="860" height="32" fill="#f4f4f4" stroke="#000" stroke-width="0.85"/>
    <line x1="390" y1="770" x2="390" y2="802" stroke="#000" stroke-width="0.85"/>
    <line x1="650" y1="770" x2="650" y2="802" stroke="#000" stroke-width="0.85"/>
    <text x="62" y="790" font-family="Times New Roman, Times, serif" font-size="11">Company Contacts</text>
    <text x="520" y="791" text-anchor="middle" font-family="Times New Roman, Times, serif" font-size="14" font-weight="bold">✓</text>
    <text x="780" y="791" text-anchor="middle" font-family="Times New Roman, Times, serif" font-size="14" font-weight="bold">✓</text>
    <rect x="50" y="802" width="860" height="32" fill="#ffffff" stroke="#000" stroke-width="0.85"/>
    <line x1="390" y1="802" x2="390" y2="834" stroke="#000" stroke-width="0.85"/>
    <line x1="650" y1="802" x2="650" y2="834" stroke="#000" stroke-width="0.85"/>
    <text x="62" y="822" font-family="Times New Roman, Times, serif" font-size="11">Reports</text>
    <text x="520" y="822" text-anchor="middle" font-family="Times New Roman, Times, serif" font-size="10.5">View / Print / Export</text>
    <text x="780" y="822" text-anchor="middle" font-family="Times New Roman, Times, serif" font-size="10.5">View</text>
    <rect x="50" y="834" width="860" height="32" fill="#f4f4f4" stroke="#000" stroke-width="0.85"/>
    <line x1="390" y1="834" x2="390" y2="866" stroke="#000" stroke-width="0.85"/>
    <line x1="650" y1="834" x2="650" y2="866" stroke="#000" stroke-width="0.85"/>
    <text x="62" y="854" font-family="Times New Roman, Times, serif" font-size="11">User Management</text>
    <text x="520" y="855" text-anchor="middle" font-family="Times New Roman, Times, serif" font-size="14" font-weight="bold">✓</text>
    <text x="780" y="855" text-anchor="middle" font-family="Times New Roman, Times, serif" font-size="14" font-weight="bold">✗</text>
    <rect x="50" y="866" width="860" height="32" fill="#ffffff" stroke="#000" stroke-width="0.85"/>
    <line x1="390" y1="866" x2="390" y2="898" stroke="#000" stroke-width="0.85"/>
    <line x1="650" y1="866" x2="650" y2="898" stroke="#000" stroke-width="0.85"/>
    <text x="62" y="886" font-family="Times New Roman, Times, serif" font-size="11">Profile</text>
    <text x="520" y="887" text-anchor="middle" font-family="Times New Roman, Times, serif" font-size="14" font-weight="bold">✓</text>
    <text x="780" y="887" text-anchor="middle" font-family="Times New Roman, Times, serif" font-size="14" font-weight="bold">✓</text>
    <rect x="50" y="898" width="860" height="32" fill="#f4f4f4" stroke="#000" stroke-width="0.85"/>
    <line x1="390" y1="898" x2="390" y2="930" stroke="#000" stroke-width="0.85"/>
    <line x1="650" y1="898" x2="650" y2="930" stroke="#000" stroke-width="0.85"/>
    <text x="62" y="918" font-family="Times New Roman, Times, serif" font-size="11">Change Password</text>
    <text x="520" y="919" text-anchor="middle" font-family="Times New Roman, Times, serif" font-size="14" font-weight="bold">✓</text>
    <text x="780" y="919" text-anchor="middle" font-family="Times New Roman, Times, serif" font-size="14" font-weight="bold">✓</text>
  <rect x="50" y="58" width="860" height="872" fill="none" stroke="#000" stroke-width="1.35"/>
  <text x="480" y="952" text-anchor="middle" font-family="Times New Roman, Times, serif" font-size="10">✓ = Allowed    ✗ = Not allowed</text>
</svg>