<?xml version="1.0" encoding="UTF-8"?>
<svg xmlns="http://www.w3.org/2000/svg" width="860" height="578" viewBox="0 0 860 578">
  <defs>
    <marker id="arrow" markerWidth="7" markerHeight="7" refX="6" refY="3" orient="auto">
      <path d="M0,0 L6,3 L0,6 Z" fill="#000"/>
    </marker>
  </defs>
  <rect width="860" height="578" fill="#fff"/><rect x="170" y="10" width="682" height="562" fill="none" stroke="#000" stroke-width="1.6"/><ellipse cx="385" cy="42" rx="60" ry="13" fill="#fff" stroke="#000" stroke-width="1.2"/><text x="385" y="45" text-anchor="middle" font-family="Times New Roman, Times, serif" font-size="11">Login</text><ellipse cx="385" cy="78" rx="60" ry="13" fill="#fff" stroke="#000" stroke-width="1.2"/><text x="385" y="81" text-anchor="middle" font-family="Times New Roman, Times, serif" font-size="11">View Dashboard</text><ellipse cx="385" cy="114" rx="70" ry="13" fill="#fff" stroke="#000" stroke-width="1.2"/><text x="385" y="117" text-anchor="middle" font-family="Times New Roman, Times, serif" font-size="11">Manage Student Quota</text><ellipse cx="385" cy="150" rx="79.3" ry="13" fill="#fff" stroke="#000" stroke-width="1.2"/><text x="385" y="153" text-anchor="middle" font-family="Times New Roman, Times, serif" font-size="11">Manage Allocation Plans</text><ellipse cx="385" cy="186" rx="60" ry="13" fill="#fff" stroke="#000" stroke-width="1.2"/><text x="385" y="189" text-anchor="middle" font-family="Times New Roman, Times, serif" font-size="11">Manage Textbooks</text><ellipse cx="385" cy="222" rx="60" ry="13" fill="#fff" stroke="#000" stroke-width="1.2"/><text x="385" y="225" text-anchor="middle" font-family="Times New Roman, Times, serif" font-size="11">Manage Stocks</text><ellipse cx="385" cy="258" rx="76.2" ry="13" fill="#fff" stroke="#000" stroke-width="1.2"/><text x="385" y="261" text-anchor="middle" font-family="Times New Roman, Times, serif" font-size="11">Manage School Supplies</text><ellipse cx="385" cy="294" rx="73.10000000000001" ry="13" fill="#fff" stroke="#000" stroke-width="1.2"/><text x="385" y="297" text-anchor="middle" font-family="Times New Roman, Times, serif" font-size="11">Manage Teacher Guides</text><ellipse cx="385" cy="330" rx="73.10000000000001" ry="13" fill="#fff" stroke="#000" stroke-width="1.2"/><text x="385" y="333" text-anchor="middle" font-family="Times New Roman, Times, serif" font-size="11">Manage Academic Years</text><ellipse cx="385" cy="366" rx="60" ry="13" fill="#fff" stroke="#000" stroke-width="1.2"/><text x="385" y="369" text-anchor="middle" font-family="Times New Roman, Times, serif" font-size="11">Manage Townships</text><ellipse cx="385" cy="402" rx="82.4" ry="13" fill="#fff" stroke="#000" stroke-width="1.2"/><text x="385" y="405" text-anchor="middle" font-family="Times New Roman, Times, serif" font-size="11">Manage Grades / Subjects</text><ellipse cx="385" cy="438" rx="60.7" ry="13" fill="#fff" stroke="#000" stroke-width="1.2"/><text x="385" y="441" text-anchor="middle" font-family="Times New Roman, Times, serif" font-size="11">Manage Book Names</text><ellipse cx="385" cy="474" rx="79.3" ry="13" fill="#fff" stroke="#000" stroke-width="1.2"/><text x="385" y="477" text-anchor="middle" font-family="Times New Roman, Times, serif" font-size="11">Manage Company Contacts</text><ellipse cx="385" cy="510" rx="60" ry="13" fill="#fff" stroke="#000" stroke-width="1.2"/><text x="385" y="513" text-anchor="middle" font-family="Times New Roman, Times, serif" font-size="11">Manage Profile</text><ellipse cx="385" cy="546" rx="60" ry="13" fill="#fff" stroke="#000" stroke-width="1.2"/><text x="385" y="549" text-anchor="middle" font-family="Times New Roman, Times, serif" font-size="11">Logout</text><ellipse cx="690" cy="222" rx="60" ry="13" fill="#fff" stroke="#000" stroke-width="1.2"/><text x="690" y="225" text-anchor="middle" font-family="Times New Roman, Times, serif" font-size="11">Export Excel</text><line x1="630" y1="222" x2="455" y2="114" stroke="#000" stroke-width="1" stroke-dasharray="4 3" marker-end="url(#arrow)"/><line x1="630" y1="222" x2="464.3" y2="150" stroke="#000" stroke-width="1" stroke-dasharray="4 3" marker-end="url(#arrow)"/><line x1="630" y1="222" x2="445" y2="186" stroke="#000" stroke-width="1" stroke-dasharray="4 3" marker-end="url(#arrow)"/><line x1="630" y1="222" x2="445" y2="222" stroke="#000" stroke-width="1" stroke-dasharray="4 3" marker-end="url(#arrow)"/><line x1="630" y1="222" x2="461.2" y2="258" stroke="#000" stroke-width="1" stroke-dasharray="4 3" marker-end="url(#arrow)"/><text x="555.5" y="212" text-anchor="middle" font-family="Times New Roman, Times, serif" font-size="9">&lt;&lt;extends&gt;&gt;</text><ellipse cx="690" cy="258" rx="60" ry="13" fill="#fff" stroke="#000" stroke-width="1.2"/><text x="690" y="261" text-anchor="middle" font-family="Times New Roman, Times, serif" font-size="11">Supply Details</text><line x1="461.2" y1="258" x2="630" y2="258" stroke="#000" stroke-width="1.1" stroke-dasharray="4 3" marker-end="url(#arrow)"/><text x="545.6" y="252" text-anchor="middle" font-family="Times New Roman, Times, serif" font-size="9">&lt;&lt;includes&gt;&gt;</text><ellipse cx="690" cy="305" rx="73.10000000000001" ry="13" fill="#fff" stroke="#000" stroke-width="1.2"/><text x="690" y="308" text-anchor="middle" font-family="Times New Roman, Times, serif" font-size="11">Teacher Guide Receipt</text><line x1="458.1" y1="294" x2="616.9" y2="305" stroke="#000" stroke-width="1.1" stroke-dasharray="4 3" marker-end="url(#arrow)"/><text x="537.5" y="293.5" text-anchor="middle" font-family="Times New Roman, Times, serif" font-size="9">&lt;&lt;includes&gt;&gt;</text><ellipse cx="690" cy="335" rx="88.60000000000001" ry="13" fill="#fff" stroke="#000" stroke-width="1.2"/><text x="690" y="338" text-anchor="middle" font-family="Times New Roman, Times, serif" font-size="11">Teacher Guide Distribution</text><line x1="458.1" y1="294" x2="601.4" y2="335" stroke="#000" stroke-width="1.1" stroke-dasharray="4 3" marker-end="url(#arrow)"/><text x="529.75" y="308.5" text-anchor="middle" font-family="Times New Roman, Times, serif" font-size="9">&lt;&lt;includes&gt;&gt;</text><ellipse cx="690" cy="365" rx="70" ry="13" fill="#fff" stroke="#000" stroke-width="1.2"/><text x="690" y="368" text-anchor="middle" font-family="Times New Roman, Times, serif" font-size="11">Teacher Guide Issues</text><line x1="458.1" y1="294" x2="620" y2="365" stroke="#000" stroke-width="1.1" stroke-dasharray="4 3" marker-end="url(#arrow)"/><text x="539.05" y="323.5" text-anchor="middle" font-family="Times New Roman, Times, serif" font-size="9">&lt;&lt;includes&gt;&gt;</text><ellipse cx="690" cy="395" rx="79.3" ry="13" fill="#fff" stroke="#000" stroke-width="1.2"/><text x="690" y="398" text-anchor="middle" font-family="Times New Roman, Times, serif" font-size="11">Teacher Guide Summaries</text><line x1="458.1" y1="294" x2="610.7" y2="395" stroke="#000" stroke-width="1.1" stroke-dasharray="4 3" marker-end="url(#arrow)"/><text x="534.4000000000001" y="338.5" text-anchor="middle" font-family="Times New Roman, Times, serif" font-size="9">&lt;&lt;includes&gt;&gt;</text><circle cx="78" cy="268" r="9" fill="#fff" stroke="#000" stroke-width="1.4"/><line x1="78" y1="277" x2="78" y2="300" stroke="#000" stroke-width="1.4"/><line x1="65" y1="289" x2="91" y2="289" stroke="#000" stroke-width="1.4"/><line x1="78" y1="300" x2="68" y2="316" stroke="#000" stroke-width="1.4"/><line x1="78" y1="300" x2="88" y2="316" stroke="#000" stroke-width="1.4"/><text x="78" y="332" text-anchor="middle" font-family="Times New Roman, Times, serif" font-size="12" font-weight="bold">Admin</text><line x1="96" y1="294" x2="325" y2="42" stroke="#000" stroke-width="1"/><line x1="96" y1="294" x2="325" y2="78" stroke="#000" stroke-width="1"/><line x1="96" y1="294" x2="315" y2="114" stroke="#000" stroke-width="1"/><line x1="96" y1="294" x2="305.7" y2="150" stroke="#000" stroke-width="1"/><line x1="96" y1="294" x2="325" y2="186" stroke="#000" stroke-width="1"/><line x1="96" y1="294" x2="325" y2="222" stroke="#000" stroke-width="1"/><line x1="96" y1="294" x2="308.8" y2="258" stroke="#000" stroke-width="1"/><line x1="96" y1="294" x2="311.9" y2="294" stroke="#000" stroke-width="1"/><line x1="96" y1="294" x2="311.9" y2="330" stroke="#000" stroke-width="1"/><line x1="96" y1="294" x2="325" y2="366" stroke="#000" stroke-width="1"/><line x1="96" y1="294" x2="302.6" y2="402" stroke="#000" stroke-width="1"/><line x1="96" y1="294" x2="324.3" y2="438" stroke="#000" stroke-width="1"/><line x1="96" y1="294" x2="305.7" y2="474" stroke="#000" stroke-width="1"/><line x1="96" y1="294" x2="325" y2="510" stroke="#000" stroke-width="1"/><line x1="96" y1="294" x2="325" y2="546" stroke="#000" stroke-width="1"/>
</svg>